<svg width="218" height="55" viewBox="0 0 218 55" fill="none" xmlns="http://www.w3.org/2000/svg">
<path d="M179.125 1.03871C179.175 1.38495 179.242 2.13851 179.224 2.16113C179.221 2.16436 179.092 2.10936 178.934 2.0315C178.474 1.80406 178.252 1.78469 178.105 1.96566C177.942 2.16602 178.005 2.68187 178.2 2.77817C178.312 2.8335 178.696 2.7608 178.951 2.6331C179.07 2.57895 179.184 2.53977 179.2 2.54797C179.25 2.57255 179.257 2.73484 179.238 3.30949C179.229 3.57715 179.206 3.8058 179.183 3.81258C179.158 3.82259 179.113 3.79154 179.073 3.74874C178.984 3.63675 178.432 3.45023 178.268 3.47333C178.111 3.49525 177.998 3.63421 177.972 3.83851C177.953 4.0331 178.054 4.33702 178.166 4.39234C178.291 4.45381 178.609 4.39822 178.881 4.27021C179.018 4.20194 179.15 4.15393 179.167 4.16213C179.191 4.17442 179.09 5.2569 179.061 5.29244C179.056 5.29891 178.943 5.2521 178.808 5.18976C178.258 4.92253 177.986 5.01445 177.934 5.48672C177.917 5.6505 178.014 5.90247 178.118 5.9537C178.225 6.00697 178.589 5.96013 178.799 5.86506C178.898 5.82297 178.985 5.7938 178.995 5.80318C179.007 5.80933 178.978 6.06674 178.932 6.37437L178.845 6.93854L179.031 7.05305C179.253 7.19451 179.49 7.48856 179.586 7.73525C179.636 7.85962 179.626 8.85129 179.565 10.95C179.484 13.6372 179.428 15.1498 179.384 15.7759C179.372 15.9916 178.976 23.8001 178.975 23.9084C178.975 23.972 178.848 26.5592 178.831 26.8589C178.787 27.6431 178.739 28.7023 178.736 28.8775C178.734 28.9943 178.724 29.0932 178.713 29.0924C178.699 29.0947 178.505 29.0759 178.283 29.0565C177.751 29.0109 177.048 29.0754 175.997 29.2673C173.906 29.6465 173.233 29.9526 172.372 30.9266C171.566 31.8327 171.202 32.8307 171.354 33.7165C171.433 34.1769 171.609 34.5899 172.109 35.4758C172.672 36.47 172.916 36.9985 173.065 37.5298L173.187 37.966L172.994 38.3463C172.587 39.1551 172.444 39.3519 171.019 41.0844C169.342 43.1271 168.947 43.6926 168.521 44.6736C167.648 46.6924 167.888 48.6414 169.234 50.3805C169.86 51.1973 170.654 51.957 171.521 52.571C172.15 53.0183 173.46 53.6796 174.261 53.9529C175.416 54.3474 176.692 54.6207 178.043 54.7674C178.56 54.824 178.832 54.868 178.824 54.9C178.814 54.9267 178.825 54.9551 178.846 54.9654C178.871 54.9777 179.508 54.9939 180.268 55.0026C181.51 55.0186 181.654 55.0128 181.686 54.9379C181.715 54.8663 181.792 54.85 182.16 54.8328C182.765 54.7965 184.104 54.6707 184.865 54.5711C186.836 54.3182 188.463 53.6957 189.658 52.7327C190.705 51.887 191.482 50.853 192.297 49.1993C193.345 47.0723 193.237 45.1252 191.951 42.9763C191.583 42.364 191.022 41.6023 190.165 40.5624C188.883 38.9952 188.658 38.6712 188.52 38.1906C188.421 37.8474 188.46 37.5994 188.696 37.0453C188.804 36.7907 188.93 36.4774 188.972 36.3482C189.019 36.2178 189.165 35.9594 189.318 35.7496C189.964 34.8549 190.234 33.8649 190.032 33.1488C189.884 32.6366 189.586 32.4392 189.088 32.5235C188.952 32.5471 188.359 32.6978 187.78 32.86C186.609 33.1867 185.594 33.3779 185.121 33.3662C184.78 33.3563 184.321 33.2563 184.085 33.1395C183.557 32.874 183.07 32.1662 182.983 31.5297C182.961 31.3698 182.901 31.0726 182.847 30.874C182.775 30.5982 182.751 30.2059 182.764 29.297C182.771 28.6302 182.779 28.0271 182.781 27.9601C182.791 27.7838 182.837 21.7501 182.831 21.557C182.817 20.8025 182.882 16.0328 182.908 16.0005C182.926 15.9779 182.931 15.9439 182.911 15.9251C182.862 15.8782 182.928 8.96205 182.98 8.94203C183.044 8.91964 183.038 8.57687 182.967 8.51445C182.806 8.36235 183.011 7.78863 183.414 7.26337L183.698 6.89205L183.664 6.42664C183.647 6.16899 183.638 5.95153 183.643 5.94507C183.651 5.93538 183.768 5.98423 183.905 6.05185C184.22 6.20757 184.54 6.25705 184.657 6.17003C184.801 6.06448 184.875 5.8657 184.85 5.65385C184.823 5.40061 184.702 5.27751 184.497 5.28012C184.32 5.28328 183.893 5.42999 183.76 5.5364C183.706 5.58196 183.649 5.60844 183.633 5.60025C183.595 5.58181 183.541 4.35456 183.578 4.30932C183.596 4.2867 183.71 4.32499 183.876 4.40695C184.216 4.57497 184.473 4.61601 184.605 4.51812C184.751 4.40934 184.821 4.15862 184.763 3.93037C184.707 3.6851 184.575 3.59723 184.319 3.63366C184.132 3.66354 183.73 3.83633 183.662 3.92035C183.641 3.94621 183.6 3.9533 183.576 3.9325C183.526 3.88032 183.525 2.7296 183.583 2.68081C183.61 2.65377 183.71 2.68064 183.91 2.77048C184.244 2.91738 184.452 2.94763 184.617 2.86612C184.885 2.73606 184.894 2.14675 184.633 2.01766C184.562 1.98283 184.445 1.97007 184.33 1.99017C184.126 2.02565 183.722 2.20168 183.656 2.28247C183.565 2.39557 183.559 2.26616 183.615 1.58258C183.647 1.18605 183.673 0.832085 183.673 0.795987C183.67 0.735535 183.626 0.718277 183.347 0.661704C183.095 0.614194 182.891 0.536099 182.436 0.324506C181.877 0.0616882 181.83 0.0476618 181.505 0.0184414C181.145 -0.0101462 180.944 0.0306146 180.684 0.192362C180.445 0.336769 180.157 0.434284 179.598 0.5568C179.328 0.6179 179.098 0.671903 179.09 0.681598C179.082 0.691293 179.099 0.849162 179.125 1.03871Z" fill="url(#paint0_linear_381_11)"/>
<path d="M184.716 37.5774C184.714 39.1624 183.066 40.446 181.034 40.4445C179.002 40.4429 177.356 39.1568 177.357 37.5719C177.358 35.9869 179.007 34.7033 181.039 34.7048C183.071 34.7063 184.717 35.9924 184.716 37.5774Z" fill="#090A0C"/>
<path d="M175.879 44.4584C175.88 44.1414 176.209 43.8847 176.616 43.885L185.446 43.8916C185.853 43.8919 186.182 44.1491 186.182 44.4661C186.181 44.7831 185.852 45.0398 185.445 45.0395L176.615 45.0329C176.208 45.0326 175.879 44.7754 175.879 44.4584Z" fill="#090A0C"/>
<path d="M17.96 51.9999L16 44.9199H7.72002L5.80002 51.9999H0.52002L8.36002 24.0799H15.64L23.52 51.9999H17.96ZM12.04 29.2399H11.72L8.64002 40.6399H15.12L12.04 29.2399Z" fill="white"/>
<path d="M35.5444 31.9599H35.1444V51.9999H30.6644V24.0799H37.1044L44.4244 44.1199H44.8244V24.0799H49.3044V51.9999H42.8644L35.5444 31.9599Z" fill="white"/>
<path d="M58.8888 24.0799H67.5688C71.1954 24.0799 73.8888 25.2799 75.6488 27.6799C77.4354 30.0799 78.3288 33.5332 78.3288 38.0399C78.3288 42.5732 77.4354 46.0399 75.6488 48.4399C73.8888 50.8132 71.1954 51.9999 67.5688 51.9999H58.8888V24.0799ZM67.2088 47.7999C69.1288 47.7999 70.5421 47.1732 71.4488 45.9199C72.3821 44.6665 72.8488 42.8399 72.8488 40.4399V35.5999C72.8488 33.2265 72.3821 31.4132 71.4488 30.1599C70.5421 28.9065 69.1288 28.2799 67.2088 28.2799H64.0488V47.7999H67.2088Z" fill="white"/>
<path d="M87.2731 51.9999V24.0799H104.913V28.3999H92.5131V35.6799H104.473V39.9999H92.5131V47.6799H104.913V51.9999H87.2731Z" fill="white"/>
<path d="M120.378 51.9999H115.138V24.0799H125.738C128.458 24.0799 130.538 24.8532 131.978 26.3999C133.418 27.9465 134.138 30.0532 134.138 32.7199C134.138 34.7732 133.658 36.5065 132.698 37.9199C131.764 39.3065 130.418 40.1865 128.658 40.5599L134.618 51.9999H128.858L123.538 41.1599H120.378V51.9999ZM124.658 37.0799C126.071 37.0799 127.084 36.7999 127.698 36.2399C128.311 35.6532 128.618 34.7332 128.618 33.4799V31.9599C128.618 30.7065 128.311 29.7999 127.698 29.2399C127.084 28.6532 126.071 28.3599 124.658 28.3599H120.378V37.0799H124.658Z" fill="white"/>
<path d="M151.602 52.4799C149.202 52.4799 147.149 52.0665 145.442 51.2399C143.762 50.4132 142.389 49.3199 141.322 47.9599L144.482 44.6799C145.522 45.8799 146.642 46.7732 147.842 47.3599C149.069 47.9199 150.375 48.1999 151.762 48.1999C153.362 48.1999 154.589 47.8399 155.442 47.1199C156.295 46.3999 156.722 45.3599 156.722 43.9999C156.722 42.8799 156.402 42.0399 155.762 41.4799C155.122 40.8932 154.042 40.4799 152.522 40.2399L149.562 39.7599C146.975 39.3065 145.135 38.3732 144.042 36.9599C142.949 35.5199 142.402 33.8265 142.402 31.8799C142.402 29.2132 143.269 27.1732 145.002 25.7599C146.735 24.3199 149.135 23.5999 152.202 23.5999C154.389 23.5999 156.269 23.9465 157.842 24.6399C159.442 25.3332 160.722 26.2799 161.682 27.4799L158.602 30.7599C157.855 29.8799 156.962 29.1865 155.922 28.6799C154.882 28.1465 153.655 27.8799 152.242 27.8799C149.202 27.8799 147.682 29.1332 147.682 31.6399C147.682 32.7065 148.002 33.5199 148.642 34.0799C149.282 34.6399 150.375 35.0532 151.922 35.3199L154.842 35.8399C157.269 36.2932 159.069 37.1865 160.242 38.5199C161.415 39.8532 162.002 41.5599 162.002 43.6399C162.002 44.9465 161.775 46.1465 161.322 47.2399C160.869 48.3065 160.202 49.2399 159.322 50.0399C158.442 50.8132 157.349 51.4132 156.042 51.8399C154.762 52.2665 153.282 52.4799 151.602 52.4799Z" fill="white"/>
<path d="M203.451 31.9599H203.051V51.9999H198.571V24.0799H205.011L212.331 44.1199H212.731V24.0799H217.211V51.9999H210.771L203.451 31.9599Z" fill="white"/>
<defs>
<linearGradient id="paint0_linear_381_11" x1="108.865" y1="0.0100098" x2="108.865" y2="55.0098" gradientUnits="userSpaceOnUse">
<stop stop-color="#FF9933"/>
<stop offset="1" stop-color="#E17203"/>
</linearGradient>
</defs>
</svg>
