<svg width="25" height="55" viewBox="0 0 25 55" fill="none" xmlns="http://www.w3.org/2000/svg">
<path d="M11.1253 1.03868C11.1751 1.38492 11.2425 2.13848 11.2241 2.1611C11.2214 2.16433 11.0919 2.10933 10.9344 2.03147C10.4744 1.80403 10.252 1.78466 10.105 1.96563C9.94215 2.16599 10.0051 2.68184 10.1999 2.77814C10.3118 2.83346 10.6962 2.76077 10.951 2.63307C11.0705 2.57892 11.1836 2.53974 11.2002 2.54793C11.2499 2.57252 11.2575 2.7348 11.2379 3.30946C11.2295 3.57712 11.2064 3.80577 11.1834 3.81255C11.1579 3.82256 11.1134 3.79151 11.0726 3.74871C10.9836 3.63672 10.4322 3.45019 10.2683 3.4733C10.111 3.49522 9.99812 3.63418 9.97154 3.83847C9.95283 4.03307 10.0544 4.33698 10.1663 4.39231C10.2906 4.45377 10.6088 4.39819 10.8813 4.27017C11.0181 4.20191 11.15 4.1539 11.1666 4.1621C11.1915 4.17439 11.0903 5.25686 11.0614 5.29241C11.0562 5.29887 10.9432 5.25207 10.808 5.18973C10.2583 4.9225 9.98614 5.01441 9.93351 5.48669C9.91661 5.65047 10.0139 5.90244 10.1175 5.95366C10.2253 6.00694 10.5886 5.9601 10.7995 5.86503C10.8976 5.82294 10.9852 5.79377 10.995 5.80315C11.0074 5.80929 10.9783 6.06671 10.9317 6.37433L10.8451 6.93851L11.0308 7.05302C11.2528 7.19448 11.4902 7.48853 11.586 7.73522C11.636 7.85959 11.6261 8.85126 11.5647 10.95C11.4841 13.6372 11.4284 15.1498 11.3845 15.7759C11.3719 15.9916 10.9756 23.8 10.9747 23.9083C10.9752 23.972 10.8481 26.5592 10.8312 26.8588C10.7865 27.6431 10.7391 28.7023 10.7361 28.8775C10.7342 28.9943 10.7235 29.0932 10.7126 29.0923C10.6991 29.0947 10.5052 29.0759 10.2828 29.0565C9.75067 29.0108 9.04759 29.0754 7.99716 29.2672C5.9057 29.6465 5.23296 29.9526 4.37186 30.9266C3.56591 31.8327 3.20229 32.8307 3.35388 33.7165C3.43292 34.1769 3.60853 34.5898 4.10854 35.4758C4.67166 36.4699 4.91605 36.9985 5.06524 37.5298L5.18711 37.966L4.99429 38.3463C4.58693 39.1551 4.44444 39.3519 3.01934 41.0844C1.34216 43.1271 0.94661 43.6925 0.521246 44.6736C-0.352292 46.6924 -0.111887 48.6413 1.23421 50.3805C1.8601 51.1973 2.65441 51.957 3.5206 52.571C4.15045 53.0183 5.46037 53.6796 6.26062 53.9529C7.4156 54.3473 8.6922 54.6207 10.0426 54.7674C10.5601 54.824 10.8323 54.8679 10.8237 54.8999C10.8136 54.9266 10.8253 54.9551 10.846 54.9653C10.8709 54.9776 11.5083 54.9938 12.268 55.0025C13.5098 55.0185 13.6538 55.0128 13.6856 54.9379C13.7148 54.8662 13.7919 54.85 14.1602 54.8328C14.7648 54.7965 16.1044 54.6706 16.8649 54.571C18.8363 54.3181 20.4632 53.6956 21.6581 52.7327C22.7054 51.887 23.4816 50.8529 24.2966 49.1993C25.3453 47.0723 25.2369 45.1252 23.9508 42.9763C23.5827 42.364 23.0225 41.6023 22.1654 40.5624C20.8829 38.9951 20.6582 38.6711 20.5201 38.1906C20.4214 37.8474 20.4603 37.5993 20.6956 37.0452C20.8037 36.7907 20.9304 36.4773 20.9715 36.3482C21.0193 36.2178 21.1654 35.9594 21.3184 35.7496C21.9641 34.8548 22.2341 33.8649 22.0317 33.1488C21.8845 32.6366 21.586 32.4391 21.0876 32.5234C20.9522 32.5471 20.3592 32.6978 19.7802 32.86C18.6086 33.1867 17.5935 33.3779 17.1209 33.3661C16.7804 33.3563 16.3214 33.2563 16.0852 33.1395C15.5574 32.874 15.0695 32.1661 14.9825 31.5297C14.9614 31.3698 14.9009 31.0726 14.8473 30.874C14.7751 30.5982 14.7512 30.2058 14.7636 29.2969C14.771 28.6301 14.7789 28.027 14.781 27.9601C14.7907 27.7837 14.8369 21.7501 14.8312 21.557C14.8169 20.8025 14.8817 16.0328 14.908 16.0005C14.9264 15.9779 14.9308 15.9438 14.9112 15.9251C14.8622 15.8782 14.9284 8.96202 14.9796 8.942C15.0442 8.91961 15.0381 8.57684 14.9668 8.51442C14.8058 8.36231 15.0105 7.7886 15.4141 7.26334L15.6984 6.89201L15.6641 6.42661C15.6469 6.16896 15.6377 5.9515 15.643 5.94504C15.6508 5.93534 15.768 5.9842 15.9047 6.05182C16.2197 6.20754 16.5396 6.25702 16.6568 6.17C16.8006 6.06445 16.875 5.86567 16.8497 5.65381C16.8231 5.40058 16.7024 5.27747 16.4969 5.28009C16.3201 5.28325 15.893 5.42996 15.7601 5.53637C15.7056 5.58193 15.6493 5.60841 15.6327 5.60022C15.5954 5.58178 15.5412 4.35453 15.5779 4.30928C15.5963 4.28666 15.7104 4.32496 15.8762 4.40692C16.216 4.57493 16.4731 4.61598 16.6049 4.51808C16.7514 4.40931 16.8215 4.15859 16.763 3.93034C16.7067 3.68507 16.5748 3.59719 16.3186 3.63362C16.1317 3.66351 15.7299 3.8363 15.6616 3.92032C15.6406 3.94617 15.6 3.95327 15.5762 3.93246C15.5257 3.88029 15.5254 2.72957 15.5825 2.68078C15.6103 2.65374 15.7104 2.68061 15.9105 2.77045C16.2442 2.91734 16.452 2.9476 16.6169 2.86609C16.8853 2.73602 16.8936 2.14671 16.6325 2.01763C16.5621 1.9828 16.4446 1.97004 16.3296 1.99014C16.1265 2.02562 15.722 2.20164 15.6564 2.28243C15.5645 2.39554 15.5593 2.26613 15.6151 1.58255C15.6469 1.18602 15.6731 0.832052 15.6734 0.795955C15.6702 0.735502 15.6262 0.718244 15.3468 0.661672C15.095 0.614161 14.8912 0.536067 14.4358 0.324474C13.8768 0.0616559 13.8301 0.0476295 13.5053 0.0184091C13.1451 -0.0101785 12.9436 0.0305823 12.6843 0.19233C12.445 0.336737 12.1567 0.434251 11.5982 0.556767C11.3278 0.617867 11.0981 0.671871 11.0902 0.681566C11.0823 0.691261 11.0993 0.849129 11.1253 1.03868Z" fill="url(#paint0_linear_381_4)"/>
<path d="M16.7158 37.5774C16.7144 39.1623 15.066 40.446 13.0339 40.4444C11.0018 40.4429 9.35562 39.1568 9.357 37.5718C9.35838 35.9869 11.0068 34.7032 13.0389 34.7048C15.071 34.7063 16.7172 35.9924 16.7158 37.5774Z" fill="#090A0C"/>
<path d="M7.87925 44.4583C7.87953 44.1413 8.20921 43.8846 8.61563 43.8849L17.4462 43.8916C17.8526 43.8919 18.1819 44.1491 18.1816 44.4661C18.1813 44.7831 17.8516 45.0398 17.4452 45.0395L8.61463 45.0329C8.20822 45.0326 7.87897 44.7753 7.87925 44.4583Z" fill="#090A0C"/>
<defs>
<linearGradient id="paint0_linear_381_4" x1="12.5478" y1="0.0094011" x2="12.5065" y2="55.0094" gradientUnits="userSpaceOnUse">
<stop stop-color="#FF9933"/>
<stop offset="1" stop-color="#E17203"/>
</linearGradient>
</defs>
</svg>
